<svg xmlns="http://www.w3.org/2000/svg" width="156" height="156">
  <rect width="156" height="156" rx="100" fill="#000000"/>
  <path d="M54.29 41.70L29.44 41.70C24.90 41.70 22.70 43.90 22.70 48.44L22.70 81.10C22.70 85.65 24.90 87.85 29.44 87.85L54.29 87.85L54.29 78.76L33.49 78.76L33.49 50.72L54.29 50.72ZM83.05 41.70L83.05 60.23L69.56 60.23L69.56 41.70L58.77 41.70L58.77 87.85L69.56 87.85L69.56 69.32L83.05 69.32L83.05 87.85L93.91 87.85L93.91 41.70ZM99.24 87.85L110.03 87.85L110.03 69.32L114.93 69.32L123.45 87.85L135.09 87.85L126.50 69.32L127.64 69.32C132.11 69.32 134.38 67.05 134.38 62.57L134.38 48.44C134.38 43.90 132.11 41.70 127.64 41.70L99.24 41.70ZM110.03 50.72L123.52 50.72L123.52 60.23L110.03 60.23Z" 
        fill="#ffffff" 
        transform="translate(-0.89, 13.23)"/>
</svg>
