<svg version="1.2" xmlns="http://www.w3.org/2000/svg" viewBox="0 0 490 490" width="490" height="490">

  <defs>
    <clipPath id="circleClip">
      <!-- Centered at 245, 245 with a radius of 245 to fill the canvas -->
      <circle cx="245" cy="245" r="245"/>
    </clipPath>
  </defs>

  <style>
    .s0 { fill: #000000 }
    .s1 { fill: #ffffff }
  </style>

  <g>
    <!-- Background Circle -->
    <circle cx="245" cy="245" r="245" class="s0"/>

    <!-- F shape clipped and repositioned to center within the new circle -->
    <g clip-path="url(#circleClip)">
      <path class="s1" d="m131.76 177.03q-4.21 68.27-4.7 146.29-0.6 78.02 4.46 154.6 0.84 22.27 16.25 29.02 15.41 6.74 35.76 3.61 20.47-3.01 36.12-10.24 15.78-7.22 16.62-12.88 2.17-16.86 3.01-43.95 0.6-16.37 1.69-29.13v-51.3q0 0 10.23 0.12 10.11 0.12 24.8 0.25 14.69 0.12 27.94 0.12 8.79 0 13.24-6.02 4.58-6.02 6.14-15.54 1.45-9.39 1.33-20.59-0.13-11.19-0.73-21.91-0.24-4.81-0.48-9.03-0.84-8.43-9.03-12.76-8.19-4.46-20.11-5.78-11.8-1.45-23.47-1.21-11.8 0.37-19.99 1.33-8.19 0.96-8.19 0.96 0 0-1.81-2.65-1.8-2.77-3.73-7.46-2.04-4.82-2.89-10.72-0.84-6.02 0.97-12.52 1.92-6.38 7.46-12.64 8.19-7.35 27.33-6.74 19.03 0.48 41.06 3.61 22.27 3.13 38.89 3.37 16.62 0.36 19.75-7.83 2.89-11.92 2.64-29.62-0.12-17.82-1.2-33.95-0.24-19.14-41.54-26.61-41.18-7.46-119.92-7.22-23.36 0-38.17 5.54-14.81 5.41-23.24 13.6-8.3 8.19-11.67 16.38-3.38 8.18-4.1 13.84-0.72 5.66-0.72 5.66z"/>
    </g>
  </g>
</svg>
